<svg width="14" height="16" viewBox="0 0 14 16" fill="none">
<path fill-rule="evenodd" clip-rule="evenodd" d="M3.8575 0.5H10.1432C12.46 0.5 13.75 1.835 13.75 4.1225V11.87C13.75 14.195 12.46 15.5 10.1432 15.5H3.8575C1.5775 15.5 0.25 14.195 0.25 11.87V4.1225C0.25 1.835 1.5775 0.5 3.8575 0.5ZM4.06 3.995V3.9875H6.30175C6.625 3.9875 6.8875 4.25 6.8875 4.57175C6.8875 4.9025 6.625 5.165 6.30175 5.165H4.06C3.73675 5.165 3.475 4.9025 3.475 4.58C3.475 4.2575 3.73675 3.995 4.06 3.995ZM4.06 8.555H9.94C10.2625 8.555 10.525 8.2925 10.525 7.97C10.525 7.6475 10.2625 7.38425 9.94 7.38425H4.06C3.73675 7.38425 3.475 7.6475 3.475 7.97C3.475 8.2925 3.73675 8.555 4.06 8.555ZM4.06 11.9825H9.94C10.2393 11.9525 10.465 11.6968 10.465 11.3975C10.465 11.09 10.2393 10.835 9.94 10.805H4.06C3.835 10.7825 3.6175 10.8875 3.4975 11.0825C3.3775 11.27 3.3775 11.5175 3.4975 11.7125C3.6175 11.9 3.835 12.0125 4.06 11.9825Z" fill="#51575E"/>
</svg>
