<svg width="16" height="16" viewBox="0 0 16 16" fill="none">
<path d="M12.4389 9.74C12.2447 9.92825 12.1554 10.2005 12.1997 10.4675L12.8664 14.1575C12.9227 14.4702 12.7907 14.7867 12.5289 14.9675C12.2724 15.155 11.9312 15.1775 11.6514 15.0275L8.32966 13.295C8.21416 13.2335 8.08591 13.2005 7.95466 13.1967H7.75141C7.68091 13.2072 7.61191 13.2297 7.54891 13.2642L4.22641 15.005C4.06216 15.0875 3.87616 15.1167 3.69391 15.0875C3.24991 15.0035 2.95366 14.5805 3.02641 14.1342L3.69391 10.4442C3.73816 10.175 3.64891 9.90125 3.45466 9.71L0.746413 7.085C0.519913 6.86525 0.441163 6.53525 0.544663 6.2375C0.645163 5.9405 0.901663 5.72375 1.21141 5.675L4.93891 5.13425C5.22241 5.105 5.47141 4.9325 5.59891 4.6775L7.24141 1.31C7.28041 1.235 7.33066 1.166 7.39141 1.1075L7.45891 1.055C7.49416 1.016 7.53466 0.98375 7.57966 0.9575L7.66141 0.9275L7.78891 0.875H8.10466C8.38666 0.90425 8.63491 1.073 8.76466 1.325L10.4289 4.6775C10.5489 4.92275 10.7822 5.093 11.0514 5.13425L14.7789 5.675C15.0939 5.72 15.3572 5.9375 15.4614 6.2375C15.5597 6.53825 15.4749 6.86825 15.2439 7.085L12.4389 9.74Z" fill="#51575E"/>
</svg>
