<svg width="18" height="18" viewBox="0 0 18 18" fill="none">
<path fill-rule="evenodd" clip-rule="evenodd" d="M9.18501 16.4994C8.16876 16.4994 7.17801 16.4881 6.19776 16.4679C4.94376 16.4431 4.07601 15.6301 3.93426 14.3461C3.69801 12.2161 3.29376 7.19563 3.29001 7.14538C3.26451 6.83563 3.49551 6.56413 3.80526 6.53938C4.11051 6.53113 4.38651 6.74563 4.41126 7.05463C4.41501 7.10563 4.81851 12.1089 5.05251 14.2224C5.13276 14.9521 5.52651 15.3286 6.22101 15.3429C8.09601 15.3826 10.0093 15.3849 12.0718 15.3474C12.8098 15.3331 13.2088 14.9641 13.2913 14.2171C13.5238 12.1216 13.9288 7.10563 13.9333 7.05463C13.958 6.74563 14.2318 6.52963 14.5385 6.53938C14.8483 6.56488 15.0793 6.83563 15.0545 7.14538C15.05 7.19638 14.6435 12.2296 14.4095 14.3409C14.264 15.6511 13.3985 16.4484 12.092 16.4724C11.0923 16.4896 10.1278 16.4994 9.18501 16.4994" fill="#C1604A"/>
<path d="M9.18501 16.4994C8.16876 16.4994 7.17801 16.4881 6.19776 16.4679C4.94376 16.4431 4.07601 15.6301 3.93426 14.3461C3.69801 12.2161 3.29376 7.19563 3.29001 7.14538C3.26451 6.83563 3.49551 6.56413 3.80526 6.53938C4.11051 6.53113 4.38651 6.74563 4.41126 7.05463C4.41501 7.10563 4.81851 12.1089 5.05251 14.2224C5.13276 14.9521 5.52651 15.3286 6.22101 15.3429C8.09601 15.3826 10.0093 15.3849 12.0718 15.3474C12.8098 15.3331 13.2088 14.9641 13.2913 14.2171C13.5238 12.1216 13.9288 7.10563 13.9333 7.05463C13.958 6.74563 14.2318 6.52963 14.5385 6.53938C14.8483 6.56488 15.0793 6.83563 15.0545 7.14538C15.05 7.19638 14.6435 12.2296 14.4095 14.3409C14.264 15.6511 13.3985 16.4484 12.092 16.4724C11.0923 16.4896 10.1278 16.4994 9.18501 16.4994" stroke="#C1604A" stroke-width="0.5"/>
<path fill-rule="evenodd" clip-rule="evenodd" d="M15.531 5.24219H2.8125C2.502 5.24219 2.25 4.99019 2.25 4.67969C2.25 4.36919 2.502 4.11719 2.8125 4.11719H15.531C15.8415 4.11719 16.0935 4.36919 16.0935 4.67969C16.0935 4.99019 15.8415 5.24219 15.531 5.24219" fill="#C1604A"/>
<path d="M15.531 5.24219H2.8125C2.502 5.24219 2.25 4.99019 2.25 4.67969C2.25 4.36919 2.502 4.11719 2.8125 4.11719H15.531C15.8415 4.11719 16.0935 4.36919 16.0935 4.67969C16.0935 4.99019 15.8415 5.24219 15.531 5.24219" stroke="#C1604A" stroke-width="0.5"/>
<path fill-rule="evenodd" clip-rule="evenodd" d="M13.0804 5.24175C12.2269 5.24175 11.4859 4.6335 11.3179 3.7965L11.1357 2.8845C11.0974 2.74575 10.9392 2.625 10.7592 2.625H7.58443C7.40443 2.625 7.24618 2.74575 7.20043 2.919L7.02568 3.7965C6.85843 4.6335 6.11668 5.24175 5.26318 5.24175C4.95268 5.24175 4.70068 4.98975 4.70068 4.67925C4.70068 4.36875 4.95268 4.11675 5.26318 4.11675C5.58268 4.11675 5.86018 3.88875 5.92318 3.57525L6.10543 2.66325C6.29068 1.96425 6.89593 1.5 7.58443 1.5H10.7592C11.4477 1.5 12.0529 1.96425 12.2307 2.6295L12.4212 3.57525C12.4834 3.88875 12.7609 4.11675 13.0804 4.11675C13.3909 4.11675 13.6429 4.36875 13.6429 4.67925C13.6429 4.98975 13.3909 5.24175 13.0804 5.24175" fill="#C1604A"/>
<path d="M13.0804 5.24175C12.2269 5.24175 11.4859 4.6335 11.3179 3.7965L11.1357 2.8845C11.0974 2.74575 10.9392 2.625 10.7592 2.625H7.58443C7.40443 2.625 7.24618 2.74575 7.20043 2.919L7.02568 3.7965C6.85843 4.6335 6.11668 5.24175 5.26318 5.24175C4.95268 5.24175 4.70068 4.98975 4.70068 4.67925C4.70068 4.36875 4.95268 4.11675 5.26318 4.11675C5.58268 4.11675 5.86018 3.88875 5.92318 3.57525L6.10543 2.66325C6.29068 1.96425 6.89593 1.5 7.58443 1.5H10.7592C11.4477 1.5 12.0529 1.96425 12.2307 2.6295L12.4212 3.57525C12.4834 3.88875 12.7609 4.11675 13.0804 4.11675C13.3909 4.11675 13.6429 4.36875 13.6429 4.67925C13.6429 4.98975 13.3909 5.24175 13.0804 5.24175" stroke="#C1604A" stroke-width="0.5"/>
</svg>
