<svg width="18" height="18" viewBox="0 0 18 18" fill="none" xmlns="http://www.w3.org/2000/svg">
<g clip-path="url(#clip0_1077_3612)">
<path d="M17.3194 9.19092C17.3194 8.63134 17.2698 8.10009 17.1848 7.58301H9.18063V10.7776H13.7635C13.5581 11.8259 12.9561 12.7113 12.0636 13.3134V15.4384H14.7977C16.3986 13.958 17.3194 11.7763 17.3194 9.19092Z" fill="#31373E"/>
<path d="M9.18064 17.5C11.4756 17.5 13.3952 16.735 14.7977 15.4387L12.0636 13.3137C11.2986 13.8237 10.3281 14.1354 9.18064 14.1354C6.96356 14.1354 5.08648 12.6408 4.41356 10.6221H1.59439V12.8108C2.98981 15.5875 5.85856 17.5 9.18064 17.5Z" fill="#31373E"/>
<path d="M4.41355 10.6224C4.23647 10.1124 4.14438 9.56695 4.14438 9.00028C4.14438 8.43362 4.24355 7.8882 4.41355 7.3782V5.18945H1.59438C1.01355 6.33695 0.680634 7.62612 0.680634 9.00028C0.680634 10.3745 1.01355 11.6636 1.59438 12.8111L4.41355 10.6224Z" fill="#31373E"/>
<path d="M9.18064 3.86458C10.4344 3.86458 11.5536 4.29667 12.439 5.13959L14.8615 2.71708C13.3952 1.34292 11.4756 0.5 9.18064 0.5C5.85856 0.5 2.98981 2.4125 1.59439 5.18917L4.41356 7.37792C5.08648 5.35917 6.96356 3.86458 9.18064 3.86458Z" fill="#31373E"/>
</g>
<defs>
<clipPath id="clip0_1077_3612">
<rect width="17" height="17" fill="white" transform="translate(0.5 0.5)"/>
</clipPath>
</defs>
</svg>
