<svg width="20" height="18" viewBox="0 0 20 18" fill="none" xmlns="http://www.w3.org/2000/svg">
<path d="M4.92259 10.366L0.410564 8.89589C0.410564 8.89589 -0.128673 8.67711 0.0449615 8.18102C0.0807052 8.07872 0.152809 7.99167 0.368503 7.84207C1.36825 7.14522 18.873 0.853557 18.873 0.853557C18.873 0.853557 19.3672 0.68701 19.6587 0.797784C19.7308 0.820107 19.7957 0.861184 19.8467 0.916813C19.8978 0.972442 19.9331 1.04063 19.9491 1.11439C19.9806 1.24468 19.9938 1.37873 19.9883 1.51266C19.9869 1.62852 19.9728 1.7359 19.9622 1.9043C19.8556 3.62446 16.6652 16.4626 16.6652 16.4626C16.6652 16.4626 16.4743 17.2139 15.7904 17.2396C15.6223 17.245 15.4549 17.2165 15.298 17.1559C15.1412 17.0952 14.9982 17.0036 14.8775 16.8865C13.5354 15.732 8.89676 12.6146 7.87175 11.929C7.84863 11.9133 7.82916 11.8927 7.81465 11.8688C7.80014 11.8449 7.79093 11.8181 7.78763 11.7904C7.7733 11.7181 7.85188 11.6286 7.85188 11.6286C7.85188 11.6286 15.929 4.44903 16.144 3.69534C16.1606 3.63694 16.0977 3.60813 16.0133 3.63371C15.4768 3.83107 6.17701 9.70397 5.15061 10.3521C5.07673 10.3745 4.99864 10.3792 4.92259 10.366Z" fill="#31373E"/>
</svg>
