<svg width="24" height="14" viewBox="0 0 24 14" fill="none" xmlns="http://www.w3.org/2000/svg">
<path fill-rule="evenodd" clip-rule="evenodd" d="M22.8693 1.15062C23.0276 0.622467 22.8693 0.234375 22.1155 0.234375H19.6229C18.9891 0.234375 18.6969 0.569629 18.5384 0.939317C18.5384 0.939317 17.2709 4.02899 15.4752 6.03593C14.8942 6.61688 14.6301 6.80172 14.3132 6.80172C14.1548 6.80172 13.9255 6.61688 13.9255 6.08877V1.15062C13.9255 0.516837 13.7415 0.234375 13.2133 0.234375H9.2964C8.90034 0.234375 8.66215 0.52853 8.66215 0.807312C8.66215 1.40813 9.55994 1.54668 9.65249 3.23678V6.9074C9.65249 7.71217 9.50715 7.85808 9.19026 7.85808C8.34525 7.85808 6.28978 4.7546 5.07069 1.20342C4.83178 0.51319 4.59216 0.234375 3.95512 0.234375H1.46252C0.750348 0.234375 0.607906 0.569629 0.607906 0.939317C0.607906 1.59952 1.45295 4.87404 4.54258 9.20482C6.60232 12.1624 9.50435 13.7656 12.1451 13.7656C13.7295 13.7656 13.9255 13.4095 13.9255 12.7962V10.5609C13.9255 9.84868 14.0756 9.70656 14.5773 9.70656C14.947 9.70656 15.5808 9.8914 17.0597 11.3174C18.7497 13.0074 19.0283 13.7656 19.979 13.7656H22.4716C23.1837 13.7656 23.5398 13.4095 23.3344 12.7068C23.1096 12.0065 22.3027 10.9903 21.232 9.78577C20.651 9.09919 19.7796 8.35981 19.5155 7.99004C19.1458 7.51477 19.2514 7.30346 19.5155 6.88098C19.5155 6.88098 22.5524 2.60299 22.8693 1.15062Z" fill="#31373E"/>
</svg>
