<svg  viewBox="0 0 36 36" fill="none">
<path d="M7.50004 28.5H28.5C28.9895 28.4966 29.4707 28.3734 29.9016 28.1413C30.3326 27.9092 30.7002 27.5752 30.9724 27.1684C31.2445 26.7615 31.4131 26.2943 31.4632 25.8074C31.5134 25.3205 31.4436 24.8287 31.26 24.375L20.61 6C20.3506 5.5311 19.9703 5.14025 19.5087 4.86808C19.047 4.59591 18.5209 4.45237 17.985 4.45237C17.4492 4.45237 16.923 4.59591 16.4614 4.86808C15.9998 5.14025 15.6195 5.5311 15.36 6L4.71004 24.375C4.52995 24.8184 4.45854 25.2984 4.50177 25.775C4.54499 26.2515 4.7016 26.7109 4.95852 27.1146C5.21544 27.5183 5.56521 27.8547 5.97863 28.0957C6.39205 28.3368 6.85713 28.4754 7.33504 28.5" stroke="#51575E" stroke-width="2.75" stroke-linecap="round" stroke-linejoin="round"/>
</svg>
