<svg width="35" height="34" viewBox="0 0 35 34" fill="currentColor" xmlns="http://www.w3.org/2000/svg">
<path fill-rule="evenodd" clip-rule="evenodd" d="M15.4781 0.0533917C13.6034 0.280074 11.4747 0.918049 9.73982 1.77321C6.24159 3.49759 3.53076 6.19909 1.78695 9.69881C0.883716 11.5115 0.297765 13.5163 0.0592339 15.6096C-0.0575137 16.6347 0.00742261 19.2092 0.174379 20.1738C0.833202 23.9806 2.51437 27.1852 5.26236 29.8726C6.95917 31.5319 9.08855 32.8964 11.2806 33.7289C12.1958 34.0765 12.649 34.0884 12.9659 33.773L13.1889 33.551V31.8707V30.1904L12.712 30.2511C12.4497 30.2845 11.8059 30.3092 11.2813 30.3058C10.4543 30.3007 10.2479 30.2727 9.73013 30.0956C8.44598 29.6563 7.83142 29.0619 7.06279 27.5156C6.61495 26.6146 6.47188 26.4016 5.99474 25.9255C5.69181 25.6231 5.27495 25.2561 5.06854 25.1099C4.60484 24.7816 4.49862 24.6269 4.61231 24.4454C4.75569 24.2167 5.32875 24.1553 5.89577 24.3081C6.7842 24.5474 7.45966 25.0801 8.1004 26.0464C8.32656 26.3876 8.66811 26.8098 8.85941 26.9847C9.80437 27.8486 11.0623 28.0523 12.5513 27.5826L13.1727 27.3866L13.2927 26.8578C13.4414 26.2024 13.6444 25.799 14.0405 25.3713C14.3935 24.9902 14.4815 25.0516 13.2935 24.8493C12.2916 24.6786 11.3479 24.3905 10.5295 24.0052C8.36731 22.9875 7.16771 21.3869 6.61663 18.7845C6.37177 17.6279 6.36879 15.6203 6.6106 14.6681C6.82151 13.8376 7.32811 12.7748 7.80334 12.1657C7.997 11.9175 8.13969 11.6785 8.12046 11.6345C7.87896 11.082 7.81005 10.6517 7.80975 9.69402C7.80937 8.67354 7.92909 7.94193 8.20432 7.28292C8.3039 7.04446 8.32244 7.03611 8.75197 7.03611C9.67023 7.03611 11.2356 7.62039 12.5026 8.43607L13.0557 8.79215L14.057 8.59699C15.4111 8.33317 16.2269 8.25237 17.5383 8.25237C18.8499 8.25237 19.6656 8.33317 21.0202 8.59714L22.0223 8.79238L22.4437 8.52408C23.7089 7.71858 25.2297 7.11987 26.1745 7.05525L26.7605 7.01515L26.8679 7.27244C27.3801 8.49849 27.4227 10.5777 26.9574 11.6309C26.9389 11.6729 27.0799 11.895 27.2709 12.1245C27.7128 12.6557 28.2513 13.7344 28.4648 14.5162C28.61 15.0477 28.6299 15.3091 28.6245 16.6046C28.6193 17.8764 28.5919 18.2087 28.4303 18.9587C27.7073 22.3165 25.6804 24.1549 21.9773 24.8116C21.4874 24.8984 21.0073 24.9851 20.9104 25.0043L20.7344 25.0391L20.9577 25.3213C21.2559 25.6981 21.5406 26.2715 21.7032 26.8227C21.8174 27.2101 21.8401 27.6949 21.8633 30.2359C21.8781 31.8648 21.9082 33.2774 21.9303 33.3749C21.9975 33.6729 22.3299 33.919 22.6653 33.919C23.3334 33.919 25.6905 32.8473 27.1579 31.8764C28.2867 31.1295 29.0439 30.5002 30.0583 29.4659C32.6578 26.8155 34.3036 23.4663 34.8211 19.7734C35.5851 14.322 33.8812 9.06121 30.1072 5.21901C27.4633 2.52745 24.1626 0.813706 20.3616 0.159176C19.5111 0.0127629 16.3761 -0.055203 15.4781 0.0533917Z" />
</svg>
