<svg width="459" height="156" viewBox="0 0 459 156" fill="none" xmlns="http://www.w3.org/2000/svg">
<path d="M0 152.115C0 153.22 0.895431 154.115 2 154.115H60.9932C94.1098 154.115 110.039 136.736 110.039 113.074C110.039 93.4662 99.2238 80.0924 80.2863 75.4361C80.1586 75.4047 80.0667 75.2899 80.0667 75.1584C80.0667 75.0411 80.1407 74.9351 80.2498 74.892C96.2534 68.5787 102.494 55.0203 102.494 41.6698C102.494 18.0081 85.3067 5.4443 53.6573 5.4443H2C0.895433 5.4443 0 6.33973 0 7.4443V152.115ZM31.1342 66.1691C30.0297 66.1691 29.1342 65.2737 29.1342 64.1691V33.4094C29.1342 32.3048 30.0297 31.4094 31.1342 31.4094H50.0941C66.2332 31.4094 72.7308 38.3195 72.7308 48.7893C72.7308 60.9342 64.1372 66.1691 51.3517 66.1691H31.1342ZM31.1342 128.15C30.0297 128.15 29.1342 127.255 29.1342 126.15V92.0403C29.1342 90.9357 30.0297 90.0403 31.1342 90.0403H53.8669C70.8444 90.0403 79.4379 97.5785 79.4379 109.305C79.4379 121.868 70.8444 128.15 56.8013 128.15H31.1342Z" fill="url(#paint0_linear_298_415)"/>
<path d="M133.221 152.115C133.221 153.22 134.117 154.115 135.221 154.115H158.679C159.783 154.115 160.679 153.22 160.679 152.115V2C160.679 0.895433 159.783 0 158.679 0H135.221C134.117 0 133.221 0.895431 133.221 2V152.115Z" fill="url(#paint1_linear_298_415)"/>
<path d="M238.112 156C269.971 156 292.398 134.223 292.398 103.023C292.398 71.6134 269.971 50.255 238.112 50.255C205.415 50.255 183.617 72.451 183.617 103.023C183.617 133.595 205.415 156 238.112 156ZM238.112 131.291C222.392 131.291 211.493 118.937 211.493 103.023C211.493 86.8993 222.183 74.7544 238.112 74.7544C253.203 74.7544 264.522 86.2711 264.522 103.023C264.522 119.774 252.784 131.291 238.112 131.291Z" fill="url(#paint2_linear_298_415)"/>
<path d="M313.93 152.115C313.93 153.22 314.825 154.115 315.93 154.115H339.178C340.282 154.115 341.178 153.22 341.178 152.115V127.044C341.178 126.544 341.365 126.061 341.704 125.692L353.188 113.177C354.095 112.188 355.7 112.356 356.383 113.512L379.792 153.133C380.152 153.742 380.807 154.115 381.514 154.115H407.658C409.211 154.115 410.171 152.422 409.374 151.089L375.249 94.0097C374.805 93.266 374.89 92.3205 375.46 91.6679L407.45 55.0364C408.579 53.7428 407.661 51.7208 405.943 51.7208H378.992C378.405 51.7208 377.848 51.9786 377.468 52.4259L341.683 94.546C341.628 94.61 341.548 94.647 341.464 94.647C341.306 94.647 341.178 94.5187 341.178 94.3604V2C341.178 0.895431 340.282 0 339.178 0H315.93C314.825 0 313.93 0.895431 313.93 2V152.115Z" fill="url(#paint3_linear_298_415)"/>
<path d="M441.603 37.9007C451.454 37.9007 459 30.3624 459 20.9396C459 11.7262 451.454 4.18793 441.603 4.18793C431.543 4.18793 424.207 11.7262 424.207 20.9396C424.207 30.3624 431.543 37.9007 441.603 37.9007ZM427.56 152.115C427.56 153.22 428.456 154.115 429.56 154.115H453.018C454.122 154.115 455.018 153.22 455.018 152.115V53.7208C455.018 52.6162 454.122 51.7208 453.018 51.7208H429.56C428.456 51.7208 427.56 52.6162 427.56 53.7208V152.115Z" fill="url(#paint4_linear_298_415)"/>
<defs>
<linearGradient id="paint0_linear_298_415" x1="5.6937" y1="77.5329" x2="459" y2="77.5329" gradientUnits="userSpaceOnUse">
<stop stop-color="#FFC632"/>
<stop offset="1" stop-color="#FF842A"/>
</linearGradient>
<linearGradient id="paint1_linear_298_415" x1="5.6937" y1="77.5329" x2="459" y2="77.5329" gradientUnits="userSpaceOnUse">
<stop stop-color="#FFC632"/>
<stop offset="1" stop-color="#FF842A"/>
</linearGradient>
<linearGradient id="paint2_linear_298_415" x1="5.6937" y1="77.5329" x2="459" y2="77.5329" gradientUnits="userSpaceOnUse">
<stop stop-color="#FFC632"/>
<stop offset="1" stop-color="#FF842A"/>
</linearGradient>
<linearGradient id="paint3_linear_298_415" x1="5.6937" y1="77.5329" x2="459" y2="77.5329" gradientUnits="userSpaceOnUse">
<stop stop-color="#FFC632"/>
<stop offset="1" stop-color="#FF842A"/>
</linearGradient>
<linearGradient id="paint4_linear_298_415" x1="5.6937" y1="77.5329" x2="459" y2="77.5329" gradientUnits="userSpaceOnUse">
<stop stop-color="#FFC632"/>
<stop offset="1" stop-color="#FF842A"/>
</linearGradient>
</defs>
</svg>
