<svg viewBox="0 0 212 73" fill="none" xmlns="http://www.w3.org/2000/svg" fill="currentColor">
<rect x="14.1426" y="14.4883" width="26.0431" height="36.1199" rx="3.62227" transform="rotate(-33.8019 14.1426 14.4883)" />
<rect x="37.6621" y="49.1416" width="26.0431" height="26.0431" rx="3.38078" transform="rotate(-33.8019 37.6621 49.1416)" />
<rect y="49.2617" width="26.0431" height="28.5666" rx="4.10524" transform="rotate(-33.8019 0 49.2617)" />
<path d="M95.1445 53.3173V17.0633H111.955C115.75 17.0633 118.712 17.8808 120.84 19.5157C123.003 21.1152 124.085 23.621 124.085 27.0331C124.085 28.6326 123.677 30.1787 122.861 31.6715C122.045 33.1288 120.574 34.2128 118.446 34.9237C120.893 35.4924 122.613 36.5232 123.606 38.016C124.599 39.5088 125.096 41.3037 125.096 43.4008C125.096 46.7063 123.978 49.1943 121.744 50.8648C119.51 52.4998 116.282 53.3173 112.062 53.3173H95.1445ZM110.838 23.7276H103.124V31.7781H110.732C112.682 31.7781 114.048 31.4227 114.828 30.7118C115.608 30.001 115.999 28.9702 115.999 27.6196C115.999 26.3045 115.608 25.3271 114.828 24.6873C114.083 24.0475 112.753 23.7276 110.838 23.7276ZM111.104 38.2825H103.124V46.653H111.157C113.25 46.653 114.722 46.3153 115.573 45.64C116.424 44.9291 116.85 43.8628 116.85 42.4411C116.85 41.0194 116.406 39.9708 115.52 39.2955C114.669 38.6202 113.197 38.2825 111.104 38.2825Z" />
<path d="M130.506 53.3173V17.0633H138.114V53.3173H130.506Z" />
<path d="M156.183 53.8505C152.14 53.8505 148.93 52.642 146.554 50.2251C144.178 47.7726 142.989 44.4315 142.989 40.2019C142.989 35.9722 144.178 32.6667 146.554 30.2853C148.93 27.8684 152.14 26.6599 156.183 26.6599C160.297 26.6599 163.524 27.8684 165.865 30.2853C168.206 32.6667 169.376 35.9722 169.376 40.2019C169.376 44.4315 168.206 47.7726 165.865 50.2251C163.524 52.642 160.297 53.8505 156.183 53.8505ZM156.183 47.5593C157.921 47.5593 159.304 46.9373 160.332 45.6933C161.361 44.4493 161.875 42.6188 161.875 40.2019C161.875 37.7849 161.361 35.9722 160.332 34.7638C159.304 33.5553 157.921 32.9511 156.183 32.9511C154.48 32.9511 153.097 33.5553 152.033 34.7638C151.005 35.9367 150.491 37.7494 150.491 40.2019C150.491 42.6188 151.005 44.4493 152.033 45.6933C153.097 46.9373 154.48 47.5593 156.183 47.5593Z" />
<path d="M174.25 53.3173V17.0633H181.858V36.4165H184.837L190.689 27.1931H199.041L191.167 39.029L199.732 53.3173H191.167L184.783 42.3345H181.858V53.3173H174.25Z" />
<path d="M203.237 23.621V16.9033H211.057V23.621H203.237ZM203.343 53.3173V27.1931H210.951V53.3173H203.343Z" />
</svg>
