<svg  viewBox="0 0 1292 464" fill="none" xmlns="http://www.w3.org/2000/svg">
<rect x="140.201" y="110.11" width="144" height="199.718" rx="15" transform="rotate(-33.8019 140.201 110.11)" fill="white"/>
<rect x="270.241" y="301.722" width="144" height="144" rx="14" transform="rotate(-33.8019 270.241 301.722)" fill="#1B4DFF"/>
<rect x="62" y="302.384" width="144" height="157.953" rx="17" transform="rotate(-33.8019 62 302.384)" fill="#FF2B2B"/>
<path d="M589 325.33V125.157H681.82C702.772 125.157 719.124 129.67 730.873 138.698C742.818 147.529 748.791 161.364 748.791 180.204C748.791 189.035 746.539 197.572 742.035 205.815C737.531 213.861 729.404 219.846 717.655 223.771C731.167 226.911 740.664 232.603 746.147 240.845C751.63 249.087 754.372 258.998 754.372 270.577C754.372 288.828 748.203 302.565 735.866 311.789C723.53 320.816 705.71 325.33 682.407 325.33H589ZM675.651 161.953H633.06V206.403H675.064C685.834 206.403 693.373 204.441 697.681 200.516C701.989 196.591 704.143 190.9 704.143 183.442C704.143 176.181 701.989 170.784 697.681 167.252C693.569 163.719 686.226 161.953 675.651 161.953ZM677.12 242.317H633.06V288.533H677.414C688.967 288.533 697.094 286.669 701.793 282.94C706.493 279.015 708.843 273.128 708.843 265.278C708.843 257.428 706.395 251.639 701.5 247.91C696.8 244.181 688.673 242.317 677.12 242.317Z" fill="white"/>
<path d="M784.247 325.33V125.157H826.251V325.33H784.247Z" fill="white"/>
<path d="M926.017 328.274C903.693 328.274 885.971 321.601 872.851 308.256C859.731 294.715 853.171 276.268 853.171 252.914C853.171 229.561 859.731 211.31 872.851 198.161C885.971 184.816 903.693 178.144 926.017 178.144C948.732 178.144 966.552 184.816 979.476 198.161C992.401 211.31 998.863 229.561 998.863 252.914C998.863 276.268 992.401 294.715 979.476 308.256C966.552 321.601 948.732 328.274 926.017 328.274ZM926.017 293.538C935.612 293.538 943.249 290.103 948.928 283.235C954.607 276.366 957.446 266.259 957.446 252.914C957.446 239.569 954.607 229.561 948.928 222.888C943.249 216.216 935.612 212.88 926.017 212.88C916.618 212.88 908.98 216.216 903.106 222.888C897.427 229.364 894.588 239.373 894.588 252.914C894.588 266.259 897.427 276.366 903.106 283.235C908.98 290.103 916.618 293.538 926.017 293.538Z" fill="white"/>
<path d="M1025.77 325.33V125.157H1067.78V232.014H1084.23L1116.54 181.087H1162.65L1119.18 246.438L1166.47 325.33H1119.18L1083.93 264.689H1067.78V325.33H1025.77Z" fill="white"/>
<path d="M1185.82 161.364V124.274H1229V161.364H1185.82ZM1186.41 325.33V181.087H1228.41V325.33H1186.41Z" fill="white"/>
</svg>
