<svg width="342" height="827" viewBox="0 0 342 827" fill="none" xmlns="http://www.w3.org/2000/svg">
<rect width="86.7399" height="120.302" rx="6" transform="matrix(0.830966 0.556323 0.556323 -0.830966 52 677.967)" fill="#F7F7F7" fill-opacity="0.5"/>
<rect width="86.7399" height="120.302" rx="6" transform="matrix(0.830966 0.556323 0.556323 -0.830966 202 644.572)" fill="#F7F7F7" fill-opacity="0.5"/>
<rect width="86.7399" height="120.302" rx="6" transform="matrix(0.830966 0.556323 0.556323 -0.830966 63.0079 455.892)" fill="#F7F7F7" fill-opacity="0.5"/>
<rect width="86.7399" height="120.302" rx="6" transform="matrix(0.830966 0.556323 0.556323 -0.830966 -69 455.967)" fill="#F7F7F7" fill-opacity="0.5"/>
<rect width="86.7399" height="120.302" rx="6" transform="matrix(0.830966 0.556323 0.556323 -0.830966 -11.9921 196.892)" fill="#F7F7F7" fill-opacity="0.5"/>
<rect width="86.7399" height="86.7399" rx="6" transform="matrix(0.830966 0.556323 0.556323 -0.830966 130.339 558.473)" fill="#F7F7F7" fill-opacity="0.5"/>
<rect width="86.7399" height="86.7399" rx="6" transform="matrix(0.830966 0.556323 0.556323 -0.830966 221 778.078)" fill="#F7F7F7" fill-opacity="0.5"/>
<rect width="86.7399" height="86.7399" rx="6" transform="matrix(0.830966 0.556323 0.556323 -0.830966 141.339 340.473)" fill="#F7F7F7" fill-opacity="0.5"/>
<rect width="86.7399" height="102.16" rx="6" transform="matrix(0.830966 0.556323 0.556323 -0.830966 -2 561.892)" fill="#F7F7F7" fill-opacity="0.5"/>
<rect width="86.7399" height="102.16" rx="6" transform="matrix(0.830966 0.556323 0.556323 -0.830966 84 244.892)" fill="#F7F7F7" fill-opacity="0.5"/>
<rect width="86.7399" height="102.16" rx="6" transform="matrix(0.830966 0.556323 0.556323 -0.830966 9 343.892)" fill="#F7F7F7" fill-opacity="0.5"/>
<rect width="86.7399" height="102.16" rx="6" transform="matrix(0.830966 0.556323 0.556323 -0.830966 -66 84.8916)" fill="#F7F7F7" fill-opacity="0.5"/>
</svg>
