<svg xmlns="http://www.w3.org/2000/svg" width="342" height="827" fill="none">
  <rect width="86.7" height="120.3" fill="currentColor" rx="6" transform="scale(1 -1) rotate(-34 -1090 -425)"/>
  <rect width="86.7" height="120.3" fill="currentColor" rx="6" transform="scale(1 -1) rotate(-34 -960 -655)"/>
  <rect width="86.7" height="120.3" fill="currentColor" rx="6" transform="scale(1 -1) rotate(-34 -719 -332)"/>
  <rect width="86.7" height="120.3" fill="currentColor" rx="6" transform="scale(1 -1) rotate(-34 -785 -114)"/>
  <rect width="86.7" height="120.3" fill="currentColor" rx="6" transform="scale(1 -1) rotate(-34 -330 -79)"/>
  <rect width="86.7" height="86.7" fill="currentColor" rx="6" transform="scale(1 -1) rotate(-34 -854 -494)"/>
  <rect width="86.7" height="86.7" fill="currentColor" rx="6" transform="scale(1 -1) rotate(-34 -1170 -753)"/>
  <rect width="86.7" height="86.7" fill="currentColor" rx="6" transform="scale(1 -1) rotate(-34 -490 -403)"/>
  <rect width="86.7" height="102.2" fill="currentColor" rx="6" transform="scale(1 -1) rotate(-34 -926 -278)"/>
  <rect width="86.7" height="102.2" fill="currentColor" rx="6" transform="scale(1 -1) rotate(-34 -361 -261)"/>
  <rect width="86.7" height="102.2" fill="currentColor" rx="6" transform="scale(1 -1) rotate(-34 -561 -187)"/>
  <rect width="86.7" height="102.2" fill="currentColor" rx="6" transform="scale(1 -1) rotate(-34 -173 66)"/>
</svg>
