<svg  viewBox="0 0 36 36" fill="none" xmlns="http://www.w3.org/2000/svg">
<path d="M6.79297 29.3476L24.1343 24.4706C24.4622 24.3784 24.7207 24.1256 24.8201 23.7998L27.7858 14.0802C27.8372 13.9119 27.932 13.7601 28.0607 13.6402L30.7914 11.0972C31.1955 10.7208 31.218 10.088 30.8416 9.68385L28.1155 6.75667C27.7391 6.35251 27.1064 6.33001 26.7022 6.7064L23.9716 9.24945C23.8428 9.36936 23.6847 9.45318 23.5132 9.49244L13.6074 11.7602C13.2754 11.8362 13.0049 12.076 12.8896 12.3965L6.79297 29.3476ZM6.79297 29.3476L18.1358 18.7839M19.5994 17.4209L18.1358 18.7839M18.1358 18.7839C18.7121 19.1582 20.0843 19.7023 20.9624 18.8844C21.8406 18.0666 21.7445 16.7896 21.063 16.0578C20.3814 15.326 19.1145 15.1394 18.2363 15.9573C17.3582 16.7751 17.8034 18.1825 18.1358 18.7839Z" stroke="#51575E" stroke-width="2.75" stroke-linecap="round"/>
</svg>
