<svg width="18" height="18" viewBox="0 0 18 18" fill="none" xmlns="http://www.w3.org/2000/svg">
<path d="M14.25 10.5C14.5467 10.5 14.8367 10.412 15.0834 10.2472C15.33 10.0824 15.5223 9.84811 15.6358 9.57403C15.7494 9.29994 15.7791 8.99834 15.7212 8.70737C15.6633 8.41639 15.5204 8.14912 15.3107 7.93934C15.1009 7.72956 14.8336 7.5867 14.5426 7.52882C14.2517 7.47094 13.9501 7.50065 13.676 7.61418C13.4019 7.72771 13.1676 7.91997 13.0028 8.16665C12.838 8.41332 12.75 8.70333 12.75 9" stroke="#51575E" stroke-width="1.5" stroke-linecap="round" stroke-linejoin="round"/>
<path d="M12.75 12C12.75 12.2967 12.838 12.5867 13.0028 12.8334C13.1676 13.08 13.4019 13.2723 13.676 13.3858C13.9501 13.4994 14.2517 13.5291 14.5426 13.4712C14.8336 13.4133 15.1009 13.2704 15.3107 13.0607C15.5204 12.8509 15.6633 12.5836 15.7212 12.2926C15.7791 12.0017 15.7494 11.7001 15.6358 11.426C15.5223 11.1519 15.33 10.9176 15.0834 10.7528C14.8367 10.588 14.5467 10.5 14.25 10.5" stroke="#51575E" stroke-width="1.5" stroke-linecap="round" stroke-linejoin="round"/>
<path d="M3 4.5V13.5" stroke="#51575E" stroke-width="1.5" stroke-linecap="round" stroke-linejoin="round"/>
<path d="M9 4.5V13.5" stroke="#51575E" stroke-width="1.5" stroke-linecap="round" stroke-linejoin="round"/>
<path d="M8.25 13.5H9.75" stroke="#51575E" stroke-width="1.5" stroke-linecap="round" stroke-linejoin="round"/>
<path d="M2.25 13.5H3.75" stroke="#51575E" stroke-width="1.5" stroke-linecap="round" stroke-linejoin="round"/>
<path d="M3 9H9" stroke="#51575E" stroke-width="1.5" stroke-linecap="round" stroke-linejoin="round"/>
<path d="M2.25 4.5H3.75" stroke="#51575E" stroke-width="1.5" stroke-linecap="round" stroke-linejoin="round"/>
<path d="M8.25 4.5H9.75" stroke="#51575E" stroke-width="1.5" stroke-linecap="round" stroke-linejoin="round"/>
</svg>
