<svg width="222" height="827" viewBox="0 0 222 827" fill="none" xmlns="http://www.w3.org/2000/svg">
<rect width="86.7399" height="120.302" rx="6" transform="matrix(0.830966 0.556323 0.556323 -0.830966 -68 677.967)" fill="#FAF3F3"/>
<rect width="86.7399" height="120.302" rx="6" transform="matrix(0.830966 0.556323 0.556323 -0.830966 82 644.572)" fill="#FAF3F3"/>
<rect width="86.7399" height="120.302" rx="6" transform="matrix(0.830966 0.556323 0.556323 -0.830966 -56.9922 455.891)" fill="#FAF3F3"/>
<rect width="86.7399" height="120.302" rx="6" transform="matrix(0.830966 0.556323 0.556323 -0.830966 -131.992 196.893)" fill="#FAF3F3"/>
<rect width="86.7399" height="86.7399" rx="6" transform="matrix(0.830966 0.556323 0.556323 -0.830966 10.3379 558.473)" fill="#FAF3F3"/>
<rect width="86.7399" height="86.7399" rx="6" transform="matrix(0.830966 0.556323 0.556323 -0.830966 101 778.078)" fill="#FAF3F3"/>
<rect width="86.7399" height="86.7399" rx="6" transform="matrix(0.830966 0.556323 0.556323 -0.830966 21.3379 340.473)" fill="#FAF3F3"/>
<rect width="86.7399" height="102.16" rx="6" transform="matrix(0.830966 0.556323 0.556323 -0.830966 -122 561.891)" fill="#FAF3F3"/>
<rect width="86.7399" height="102.16" rx="6" transform="matrix(0.830966 0.556323 0.556323 -0.830966 -36 244.893)" fill="#FAF3F3"/>
<rect width="86.7399" height="102.16" rx="6" transform="matrix(0.830966 0.556323 0.556323 -0.830966 -111 343.891)" fill="#FAF3F3"/>
</svg>
