<svg width="222" height="827" viewBox="0 0 222 827" xmlns="http://www.w3.org/2000/svg">
<rect width="86.7399" height="120.302" rx="6" transform="matrix(0.830966 0.556323 0.556323 -0.830966 -68 677.967)"/>
<rect width="86.7399" height="120.302" rx="6" transform="matrix(0.830966 0.556323 0.556323 -0.830966 82 644.572)"/>
<rect width="86.7399" height="120.302" rx="6" transform="matrix(0.830966 0.556323 0.556323 -0.830966 -56.9922 455.891)"/>
<rect width="86.7399" height="120.302" rx="6" transform="matrix(0.830966 0.556323 0.556323 -0.830966 -131.992 196.893)"/>
<rect width="86.7399" height="86.7399" rx="6" transform="matrix(0.830966 0.556323 0.556323 -0.830966 10.3379 558.473)"/>
<rect width="86.7399" height="86.7399" rx="6" transform="matrix(0.830966 0.556323 0.556323 -0.830966 101 778.078)"/>
<rect width="86.7399" height="86.7399" rx="6" transform="matrix(0.830966 0.556323 0.556323 -0.830966 21.3379 340.473)"/>
<rect width="86.7399" height="102.16" rx="6" transform="matrix(0.830966 0.556323 0.556323 -0.830966 -122 561.891)"/>
<rect width="86.7399" height="102.16" rx="6" transform="matrix(0.830966 0.556323 0.556323 -0.830966 -36 244.893)"/>
<rect width="86.7399" height="102.16" rx="6" transform="matrix(0.830966 0.556323 0.556323 -0.830966 -111 343.891)"/>
</svg>
