<svg width="18" height="18" viewBox="0 0 18 18" fill="none">
<path d="M4.875 14.25C6.32475 14.25 7.5 13.0747 7.5 11.625C7.5 10.1753 6.32475 9 4.875 9C3.42525 9 2.25 10.1753 2.25 11.625C2.25 13.0747 3.42525 14.25 4.875 14.25Z" stroke="#51575E" stroke-width="1.5" stroke-linecap="round" stroke-linejoin="round"/>
<path d="M7.5 9V14.25" stroke="#51575E" stroke-width="1.5" stroke-linecap="round" stroke-linejoin="round"/>
<path d="M13.125 14.25C14.5747 14.25 15.75 13.0747 15.75 11.625C15.75 10.1753 14.5747 9 13.125 9C11.6753 9 10.5 10.1753 10.5 11.625C10.5 13.0747 11.6753 14.25 13.125 14.25Z" stroke="#51575E" stroke-width="1.5" stroke-linecap="round" stroke-linejoin="round"/>
<path d="M15.75 9V14.25" stroke="#51575E" stroke-width="1.5" stroke-linecap="round" stroke-linejoin="round"/>
</svg>
