<svg width="18" height="18" viewBox="0 0 18 18" fill="none">
<path d="M4.875 14.25C6.32475 14.25 7.5 13.0747 7.5 11.625C7.5 10.1753 6.32475 9 4.875 9C3.42525 9 2.25 10.1753 2.25 11.625C2.25 13.0747 3.42525 14.25 4.875 14.25Z" stroke="#51575E" stroke-width="1.5" stroke-linecap="round" stroke-linejoin="round"/>
<path d="M10.5 14.25V6.375C10.5 5.67881 10.7766 5.01113 11.2688 4.51884C11.7611 4.02656 12.4288 3.75 13.125 3.75C13.8212 3.75 14.4889 4.02656 14.9812 4.51884C15.4734 5.01113 15.75 5.67881 15.75 6.375V14.25" stroke="#51575E" stroke-width="1.5" stroke-linecap="round" stroke-linejoin="round"/>
<path d="M10.5 9.75H15.75" stroke="#51575E" stroke-width="1.5" stroke-linecap="round" stroke-linejoin="round"/>
<path d="M7.5 9V14.25" stroke="#51575E" stroke-width="1.5" stroke-linecap="round" stroke-linejoin="round"/>
</svg>
