<?xml version="1.0" standalone="no"?>
<!DOCTYPE svg PUBLIC "-//W3C//DTD SVG 20010904//EN"
 "http://www.w3.org/TR/2001/REC-SVG-20010904/DTD/svg10.dtd">
<svg version="1.0" xmlns="http://www.w3.org/2000/svg"
 width="512.000000pt" height="512.000000pt" viewBox="0 0 512.000000 512.000000"
 preserveAspectRatio="xMidYMid meet">
<metadata>
Created by potrace 1.14, written by Peter Selinger 2001-2017
</metadata>
<g transform="translate(0.000000,512.000000) scale(0.100000,-0.100000)"
fill="#000000" stroke="none">
<path d="M2434 4863 c-55 -36 -337 -226 -629 -421 -291 -195 -533 -357 -537
-361 -4 -4 -10 -20 -14 -36 -5 -27 20 -68 212 -355 681 -1020 969 -1447 987
-1467 11 -13 32 -23 45 -23 16 0 176 101 446 282 232 155 516 344 631 421 116
77 215 148 222 156 32 41 59 -3 -682 1101 -138 206 -307 457 -374 557 -67 100
-128 189 -137 198 -29 29 -68 17 -170 -52z"/>
<path d="M1269 2773 c-319 -214 -1032 -692 -1051 -705 -10 -7 -22 -25 -27 -40
-9 -26 22 -76 506 -801 283 -424 523 -780 532 -790 43 -45 53 -40 384 181 760
508 947 634 962 648 33 33 18 65 -153 319 -93 138 -327 487 -521 777 -193 290
-360 532 -371 538 -10 5 -27 10 -37 10 -11 0 -111 -62 -224 -137z"/>
<path d="M3920 2701 c-47 -31 -326 -218 -620 -415 -294 -197 -543 -366 -554
-376 -41 -40 -33 -55 256 -485 151 -225 341 -509 422 -630 83 -125 157 -225
171 -232 20 -11 31 -11 60 1 19 8 40 20 47 26 7 6 276 187 598 402 322 215
595 400 608 411 43 39 33 61 -154 339 -97 144 -284 423 -416 620 -132 198
-248 368 -259 379 -31 31 -68 22 -159 -40z"/>
</g>
</svg>
