<svg viewBox="0 0 16 16" fill="none" xmlns="http://www.w3.org/2000/svg">
<path fill-rule="evenodd" clip-rule="evenodd" d="M8 15.5003C3.85809 15.5003 0.5 12.1425 0.5 8.0003C0.5 3.85864 3.85834 0.500304 8 0.500304C12.1417 0.500304 15.5 3.85864 15.5 8.0003C15.5 12.1425 12.1419 15.5003 8 15.5003ZM8 1.62535C4.47966 1.62535 1.625 4.48001 1.625 8.00035C1.625 11.5212 4.47939 14.3754 8 14.3754C11.5206 14.3754 14.375 11.5212 14.375 8.00035C14.375 4.48001 11.5203 1.62535 8 1.62535Z" fill="#9CA5AB"/>
<path d="M7.99972 5.2527L7.99972 10.7475" stroke-width="1.12684" stroke-linecap="round" stroke-linejoin="round"/>
<path d="M10.75 8.00043L5.25 8.00043" stroke-width="1.12684" stroke-linecap="round" stroke-linejoin="round"/>
</svg>
