<svg width="15" height="16" viewBox="0 0 15 16" fill="none" xmlns="http://www.w3.org/2000/svg">
<path fill-rule="evenodd" clip-rule="evenodd" d="M7.18501 15.4994C6.16876 15.4994 5.17801 15.4881 4.19776 15.4679C2.94376 15.4431 2.07601 14.6301 1.93426 13.3461C1.69801 11.2161 1.29376 6.19563 1.29001 6.14538C1.26451 5.83563 1.49551 5.56413 1.80526 5.53938C2.11051 5.53113 2.38651 5.74563 2.41126 6.05463C2.41501 6.10563 2.81851 11.1089 3.05251 13.2224C3.13276 13.9521 3.52651 14.3286 4.22101 14.3429C6.09601 14.3826 8.00926 14.3849 10.0718 14.3474C10.8098 14.3331 11.2088 13.9641 11.2913 13.2171C11.5238 11.1216 11.9288 6.10563 11.9333 6.05463C11.958 5.74563 12.2318 5.52963 12.5385 5.53938C12.8483 5.56488 13.0793 5.83563 13.0545 6.14538C13.05 6.19638 12.6435 11.2296 12.4095 13.3409C12.264 14.6511 11.3985 15.4484 10.092 15.4724C9.09226 15.4896 8.12776 15.4994 7.18501 15.4994" fill="#51575E"/>
<path d="M7.18501 15.4994C6.16876 15.4994 5.17801 15.4881 4.19776 15.4679C2.94376 15.4431 2.07601 14.6301 1.93426 13.3461C1.69801 11.2161 1.29376 6.19563 1.29001 6.14538C1.26451 5.83563 1.49551 5.56413 1.80526 5.53938C2.11051 5.53113 2.38651 5.74563 2.41126 6.05463C2.41501 6.10563 2.81851 11.1089 3.05251 13.2224C3.13276 13.9521 3.52651 14.3286 4.22101 14.3429C6.09601 14.3826 8.00926 14.3849 10.0718 14.3474C10.8098 14.3331 11.2088 13.9641 11.2913 13.2171C11.5238 11.1216 11.9288 6.10563 11.9333 6.05463C11.958 5.74563 12.2318 5.52963 12.5385 5.53938C12.8483 5.56488 13.0793 5.83563 13.0545 6.14538C13.05 6.19638 12.6435 11.2296 12.4095 13.3409C12.264 14.6511 11.3985 15.4484 10.092 15.4724C9.09226 15.4896 8.12776 15.4994 7.18501 15.4994" stroke="#51575E" stroke-width="0.5"/>
<path fill-rule="evenodd" clip-rule="evenodd" d="M13.531 4.24219H0.8125C0.502 4.24219 0.25 3.99019 0.25 3.67969C0.25 3.36919 0.502 3.11719 0.8125 3.11719H13.531C13.8415 3.11719 14.0935 3.36919 14.0935 3.67969C14.0935 3.99019 13.8415 4.24219 13.531 4.24219" fill="#51575E"/>
<path d="M13.531 4.24219H0.8125C0.502 4.24219 0.25 3.99019 0.25 3.67969C0.25 3.36919 0.502 3.11719 0.8125 3.11719H13.531C13.8415 3.11719 14.0935 3.36919 14.0935 3.67969C14.0935 3.99019 13.8415 4.24219 13.531 4.24219" stroke="#51575E" stroke-width="0.5"/>
<path fill-rule="evenodd" clip-rule="evenodd" d="M11.0799 4.24175C10.2264 4.24175 9.48545 3.6335 9.31745 2.7965L9.1352 1.8845C9.09695 1.74575 8.9387 1.625 8.7587 1.625H5.58395C5.40395 1.625 5.2457 1.74575 5.19995 1.919L5.0252 2.7965C4.85795 3.6335 4.1162 4.24175 3.2627 4.24175C2.9522 4.24175 2.7002 3.98975 2.7002 3.67925C2.7002 3.36875 2.9522 3.11675 3.2627 3.11675C3.5822 3.11675 3.8597 2.88875 3.9227 2.57525L4.10495 1.66325C4.2902 0.96425 4.89545 0.5 5.58395 0.5H8.7587C9.4472 0.5 10.0524 0.96425 10.2302 1.6295L10.4207 2.57525C10.4829 2.88875 10.7604 3.11675 11.0799 3.11675C11.3904 3.11675 11.6424 3.36875 11.6424 3.67925C11.6424 3.98975 11.3904 4.24175 11.0799 4.24175" fill="#51575E"/>
<path d="M11.0799 4.24175C10.2264 4.24175 9.48545 3.6335 9.31745 2.7965L9.1352 1.8845C9.09695 1.74575 8.9387 1.625 8.7587 1.625H5.58395C5.40395 1.625 5.2457 1.74575 5.19995 1.919L5.0252 2.7965C4.85795 3.6335 4.1162 4.24175 3.2627 4.24175C2.9522 4.24175 2.7002 3.98975 2.7002 3.67925C2.7002 3.36875 2.9522 3.11675 3.2627 3.11675C3.5822 3.11675 3.8597 2.88875 3.9227 2.57525L4.10495 1.66325C4.2902 0.96425 4.89545 0.5 5.58395 0.5H8.7587C9.4472 0.5 10.0524 0.96425 10.2302 1.6295L10.4207 2.57525C10.4829 2.88875 10.7604 3.11675 11.0799 3.11675C11.3904 3.11675 11.6424 3.36875 11.6424 3.67925C11.6424 3.98975 11.3904 4.24175 11.0799 4.24175" stroke="#51575E" stroke-width="0.5"/>
</svg>
