<svg viewBox="0 0 149 48" fill="none" xmlns="http://www.w3.org/2000/svg">
<rect x="10.4104" y="9.30176" width="16.7196" height="23.1889" rx="1.15653" transform="rotate(-33.8019 10.4104 9.30176)" fill="#FFC632"/>
<rect x="25.509" y="31.5488" width="16.7196" height="16.7196" rx="1.15653" transform="rotate(-33.8019 25.509 31.5488)" fill="#FFA41B"/>
<rect y="30.8906" width="16.7196" height="19.6919" rx="1.15653" transform="rotate(-33.8019 0 30.8906)" fill="#FF842B"/>
<path d="M62.0673 37.1873V9.95121H74.6752C77.5212 9.95121 79.7423 10.5654 81.3382 11.7937C82.9607 12.9952 83.772 14.8777 83.772 17.4411C83.772 18.6427 83.4661 19.8043 82.8543 20.9258C82.2426 22.0205 81.1387 22.835 79.5428 23.369C81.3781 23.7962 82.6681 24.5706 83.4129 25.6921C84.1577 26.8136 84.5301 28.162 84.5301 29.7374C84.5301 32.2207 83.6922 34.0899 82.0165 35.3449C80.3407 36.5732 77.9202 37.1873 74.755 37.1873H62.0673ZM73.8373 14.9579H68.052V21.0059H73.7575C75.2204 21.0059 76.2445 20.7388 76.8297 20.2048C77.4149 19.6708 77.7074 18.8964 77.7074 17.8817C77.7074 16.8937 77.4149 16.1594 76.8297 15.6788C76.2711 15.1982 75.2736 14.9579 73.8373 14.9579ZM74.0368 25.8923H68.052V32.1807H74.0767C75.646 32.1807 76.7499 31.927 77.3883 31.4197C78.0266 30.8856 78.3458 30.0846 78.3458 29.0165C78.3458 27.9484 78.0133 27.1607 77.3484 26.6534C76.71 26.146 75.6061 25.8923 74.0368 25.8923Z" fill="url(#paint0_linear_1080_3053)"/>
<path d="M88.5882 37.1873V9.95121H94.2936V37.1873H88.5882Z" fill="url(#paint1_linear_1080_3053)"/>
<path d="M107.845 37.5878C104.813 37.5878 102.406 36.68 100.623 34.8642C98.8413 33.0218 97.9503 30.5118 97.9503 27.3343C97.9503 24.1567 98.8413 21.6734 100.623 19.8844C102.406 18.0686 104.813 17.1608 107.845 17.1608C110.931 17.1608 113.351 18.0686 115.107 19.8844C116.862 21.6734 117.74 24.1567 117.74 27.3343C117.74 30.5118 116.862 33.0218 115.107 34.8642C113.351 36.68 110.931 37.5878 107.845 37.5878ZM107.845 32.8616C109.148 32.8616 110.186 32.3943 110.957 31.4597C111.729 30.5252 112.114 29.15 112.114 27.3343C112.114 25.5185 111.729 24.1567 110.957 23.2488C110.186 22.341 109.148 21.887 107.845 21.887C106.568 21.887 105.531 22.341 104.733 23.2488C103.962 24.13 103.576 25.4918 103.576 27.3343C103.576 29.15 103.962 30.5252 104.733 31.4597C105.531 32.3943 106.568 32.8616 107.845 32.8616Z" fill="url(#paint2_linear_1080_3053)"/>
<path d="M121.395 37.1873V9.95121H127.101V24.4905H129.335L133.724 17.5613H139.988L134.083 26.4531L140.507 37.1873H134.083L129.295 28.9364H127.101V37.1873H121.395Z" fill="url(#paint3_linear_1080_3053)"/>
<path d="M143.135 14.8777V9.83105H149V14.8777H143.135ZM143.215 37.1873V17.5613H148.92V37.1873H143.215Z" fill="url(#paint4_linear_1080_3053)"/>
<defs>
<linearGradient id="paint0_linear_1080_3053" x1="63.1456" y1="23.6263" x2="149" y2="23.6263" gradientUnits="userSpaceOnUse">
<stop stop-color="#FFC632"/>
<stop offset="1" stop-color="#FF842A"/>
</linearGradient>
<linearGradient id="paint1_linear_1080_3053" x1="63.1456" y1="23.6263" x2="149" y2="23.6263" gradientUnits="userSpaceOnUse">
<stop stop-color="#FFC632"/>
<stop offset="1" stop-color="#FF842A"/>
</linearGradient>
<linearGradient id="paint2_linear_1080_3053" x1="63.1456" y1="23.6263" x2="149" y2="23.6263" gradientUnits="userSpaceOnUse">
<stop stop-color="#FFC632"/>
<stop offset="1" stop-color="#FF842A"/>
</linearGradient>
<linearGradient id="paint3_linear_1080_3053" x1="63.1456" y1="23.6263" x2="149" y2="23.6263" gradientUnits="userSpaceOnUse">
<stop stop-color="#FFC632"/>
<stop offset="1" stop-color="#FF842A"/>
</linearGradient>
<linearGradient id="paint4_linear_1080_3053" x1="63.1456" y1="23.6263" x2="149" y2="23.6263" gradientUnits="userSpaceOnUse">
<stop stop-color="#FFC632"/>
<stop offset="1" stop-color="#FF842A"/>
</linearGradient>
</defs>
</svg>
