<svg width="16" height="16" viewBox="0 0 16 16" fill="none" xmlns="http://www.w3.org/2000/svg">
<path fill-rule="evenodd" clip-rule="evenodd" d="M7.03311 0.0240907C6.96431 0.0407418 6.68287 0.0973932 6.40768 0.150038C3.83285 0.642562 1.47235 2.64758 0.536016 5.13724C-0.135259 6.92236 -0.1771 8.82153 0.416496 10.5657C1.54909 13.8936 4.8386 16.1487 8.33232 15.9923C9.22324 15.9525 9.82591 15.8445 10.5668 15.5919C13.0661 14.7398 15.1088 12.5237 15.7478 9.97102C15.9704 9.08144 16.0264 8.54954 15.9895 7.67272C15.9392 6.47653 15.7003 5.51014 15.2113 4.52497C14.0985 2.28314 12.0591 0.699964 9.5661 0.142589C9.11223 0.0411174 7.31149 -0.0430773 7.03311 0.0240907ZM8.91978 3.63514C8.99427 3.67695 9.87119 4.47708 10.8684 5.41318C12.7767 7.20443 12.8614 7.30859 12.6817 7.64387C12.5585 7.8736 9.01773 11.1857 8.8503 11.2277C8.54578 11.3042 8.3517 11.2334 8.23719 11.0039C8.15 10.8293 8.1278 10.6207 8.12774 9.97722L8.12761 9.1697L7.48655 9.20676C6.151 9.28407 5.42876 9.68958 4.73384 10.7522C4.45559 11.1777 4.26164 11.3022 3.9852 11.2328C3.72571 11.1676 3.66317 10.9085 3.70607 10.0764C3.8441 7.39735 5.19897 5.86595 7.57592 5.70244L8.11867 5.66507L8.13881 4.76084C8.15882 3.85817 8.1592 3.85629 8.33438 3.70562C8.52664 3.54024 8.71114 3.51808 8.91978 3.63514Z" fill="white"/>
</svg>
