<svg viewBox="0 0 16 17" fill="none" xmlns="http://www.w3.org/2000/svg">
<mask id="mask0_405_770" style="mask-type:alpha" maskUnits="userSpaceOnUse" x="0" y="0" width="16" height="17">
<path fill-rule="evenodd" clip-rule="evenodd" d="M0.5 0.5H14.9636V16.0408H0.5V0.5Z" fill="white" stroke="white" stroke-width="0.5"/>
</mask>
<g mask="url(#mask0_405_770)">
<path fill-rule="evenodd" clip-rule="evenodd" d="M4.40174 12.08C4.57349 12.08 4.74524 12.1018 4.91324 12.1468C5.42024 12.2832 5.86049 12.6223 6.12149 13.0775C6.29099 13.3633 6.38474 13.697 6.38774 14.0375C6.38774 14.525 6.77924 14.9158 7.26074 14.9158H8.20049C8.67974 14.9158 9.07124 14.5272 9.07349 14.048C9.07049 13.5185 9.27749 13.0153 9.65624 12.6365C10.0297 12.263 10.5517 12.0387 11.0737 12.0538C11.4157 12.062 11.745 12.1543 12.0352 12.3193C12.453 12.5585 12.9862 12.416 13.2277 12.0035L13.7257 11.1733C13.8367 10.982 13.869 10.742 13.8097 10.5208C13.7512 10.2995 13.6042 10.1075 13.4062 9.99425C12.9427 9.72725 12.612 9.29675 12.4747 8.78075C12.339 8.2745 12.4132 7.72175 12.678 7.2665C12.8505 6.9665 13.1032 6.71375 13.4062 6.53975C13.8127 6.302 13.9552 5.77025 13.719 5.35625C13.7092 5.33975 13.7002 5.3225 13.6927 5.3045L13.2532 4.5425C13.014 4.12625 12.4815 3.983 12.0637 4.22075C11.6122 4.48775 11.0752 4.56425 10.5592 4.4285C10.044 4.295 9.61199 3.96875 9.34274 3.50825C9.17024 3.22025 9.07649 2.885 9.07349 2.54375C9.08024 2.28725 8.99024 2.057 8.82674 1.88825C8.66399 1.72025 8.43524 1.625 8.20049 1.625H7.26074C7.02824 1.625 6.81074 1.71575 6.64649 1.87925C6.48299 2.0435 6.39374 2.26175 6.39524 2.49425C6.37949 3.59075 5.48324 4.4735 4.39799 4.4735C4.04999 4.46975 3.71474 4.376 3.42374 4.202C3.01499 3.9695 2.48099 4.11275 2.24174 4.529L1.73399 5.36375C1.50149 5.76725 1.64399 6.3005 2.05799 6.54125C2.67224 6.89675 3.05549 7.55975 3.05549 8.27075C3.05549 8.98175 2.67224 9.644 2.05649 10.0002C1.64474 10.2387 1.50224 10.769 1.74074 11.1815L2.21399 11.9975C2.33099 12.2083 2.52224 12.3605 2.74349 12.4228C2.96399 12.4843 3.20699 12.458 3.40949 12.3455C3.70724 12.1707 4.05374 12.08 4.40174 12.08ZM8.20049 16.0408H7.26074C6.15899 16.0408 5.26274 15.1453 5.26274 14.0435C5.26124 13.9078 5.22224 13.7668 5.14949 13.6445C5.03174 13.439 4.84124 13.292 4.62149 13.2335C4.40324 13.175 4.16399 13.2073 3.96749 13.3213C3.49649 13.5838 2.94224 13.6475 2.43524 13.505C1.92899 13.3618 1.49174 13.0138 1.23524 12.5525L0.76649 11.7448C0.21824 10.7938 0.54449 9.575 1.49399 9.026C1.76324 8.87075 1.93049 8.58125 1.93049 8.27075C1.93049 7.96025 1.76324 7.67 1.49399 7.51475C0.54374 6.96275 0.21824 5.741 0.76574 4.79L1.27424 3.95525C1.81499 3.01475 3.03749 2.68325 3.99074 3.23075C4.12049 3.308 4.26149 3.347 4.40474 3.3485C4.87199 3.3485 5.26274 2.963 5.27024 2.489C5.26724 1.96625 5.47349 1.4645 5.84924 1.08575C6.22649 0.70775 6.72749 0.5 7.26074 0.5H8.20049C8.73749 0.5 9.25949 0.7205 9.63374 1.10375C10.0072 1.48925 10.2135 2.018 10.1977 2.55425C10.1992 2.675 10.239 2.8145 10.311 2.93675C10.4302 3.13925 10.6185 3.28175 10.842 3.34025C11.0655 3.39575 11.2995 3.36575 11.4982 3.248C12.4582 2.69975 13.68 3.02825 14.2282 3.98075L14.6955 4.79C14.7075 4.81175 14.718 4.83275 14.727 4.8545C15.2235 5.79275 14.892 6.974 13.9695 7.51325C13.8352 7.5905 13.7265 7.6985 13.6515 7.829C13.5352 8.03075 13.503 8.27075 13.5615 8.49125C13.6215 8.71625 13.7647 8.903 13.9665 9.0185C14.4217 9.28025 14.7615 9.72125 14.8972 10.2305C15.033 10.739 14.9587 11.291 14.694 11.7463L14.196 12.5758C13.6477 13.5178 12.426 13.844 11.4757 13.295C11.349 13.2223 11.2027 13.1825 11.0572 13.1788H11.0527C10.836 13.1788 10.6132 13.271 10.4512 13.4323C10.287 13.5965 10.197 13.8155 10.1985 14.048C10.1932 15.1498 9.29699 16.0408 8.20049 16.0408Z" fill="currentColor"/>
<path d="M4.91324 12.1468L4.97823 11.9053L4.97792 11.9053L4.91324 12.1468ZM6.12149 13.0775L5.90458 13.2019L5.90647 13.205L6.12149 13.0775ZM6.38774 14.0375H6.63775L6.63773 14.0353L6.38774 14.0375ZM9.07349 14.048L9.3235 14.0492L9.32349 14.0466L9.07349 14.048ZM11.0737 12.0538L11.0666 12.3036L11.0677 12.3037L11.0737 12.0538ZM12.0352 12.3193L12.1595 12.1023L12.1588 12.1019L12.0352 12.3193ZM13.2277 12.0035L13.0133 11.8749L13.012 11.8772L13.2277 12.0035ZM13.7257 11.1733L13.9402 11.3019L13.942 11.2987L13.7257 11.1733ZM13.8097 10.5208L13.568 10.5847L13.5682 10.5854L13.8097 10.5208ZM13.4062 9.99425L13.2814 10.2109L13.2821 10.2113L13.4062 9.99425ZM12.4747 8.78075L12.7163 8.71649L12.7162 8.716L12.4747 8.78075ZM12.678 7.2665L12.8941 7.39218L12.8947 7.39112L12.678 7.2665ZM13.4062 6.53975L13.5307 6.75655L13.5325 6.75555L13.4062 6.53975ZM13.719 5.35625L13.9361 5.23233L13.9342 5.22907L13.719 5.35625ZM13.6927 5.3045L13.9235 5.20835L13.9173 5.19351L13.9093 5.17959L13.6927 5.3045ZM13.2532 4.5425L13.0365 4.66708L13.0367 4.66741L13.2532 4.5425ZM12.0637 4.22075L11.9401 4.00344L11.9365 4.00556L12.0637 4.22075ZM10.5592 4.4285L10.6228 4.18673L10.6219 4.18649L10.5592 4.4285ZM9.34274 3.50825L9.55857 3.38206L9.55721 3.37979L9.34274 3.50825ZM9.07349 2.54375L8.82342 2.53717L8.8235 2.54595L9.07349 2.54375ZM8.82674 1.88825L8.64718 2.0622L8.64719 2.06221L8.82674 1.88825ZM6.64649 1.87925L6.47012 1.70207L6.46931 1.70288L6.64649 1.87925ZM6.39524 2.49425L6.64527 2.49784L6.64523 2.49264L6.39524 2.49425ZM4.39799 4.4735L4.3953 4.7235H4.39799V4.4735ZM3.42374 4.202L3.55207 3.98738L3.54734 3.98469L3.42374 4.202ZM2.24174 4.529L2.4554 4.65896L2.45849 4.65358L2.24174 4.529ZM1.73399 5.36375L1.52034 5.23379L1.51738 5.23894L1.73399 5.36375ZM2.05799 6.54125L1.93231 6.75737L1.93276 6.75762L2.05799 6.54125ZM2.05649 10.0002L1.93129 9.78386L1.93118 9.78392L2.05649 10.0002ZM1.74074 11.1815L1.52431 11.3066L1.52448 11.3069L1.74074 11.1815ZM2.21399 11.9975L2.4326 11.8761L2.43025 11.8721L2.21399 11.9975ZM2.74349 12.4228L2.67578 12.6634L2.67633 12.6636L2.74349 12.4228ZM3.40949 12.3455L3.53093 12.5641L3.53603 12.5611L3.40949 12.3455ZM5.26274 14.0435H5.51276L5.51272 14.0407L5.26274 14.0435ZM5.14949 13.6445L4.93255 13.7688L4.93465 13.7723L5.14949 13.6445ZM4.62149 13.2335L4.55676 13.475L4.55718 13.4751L4.62149 13.2335ZM3.96749 13.3213L4.08921 13.5397L4.09294 13.5375L3.96749 13.3213ZM2.43524 13.505L2.36717 13.7456L2.36759 13.7457L2.43524 13.505ZM1.23524 12.5525L1.45377 12.431L1.45147 12.427L1.23524 12.5525ZM0.76649 11.7448L0.549903 11.8696L0.550262 11.8702L0.76649 11.7448ZM1.49399 9.026L1.36911 8.80942L1.36885 8.80957L1.49399 9.026ZM1.49399 7.51475L1.36841 7.73092L1.36911 7.73133L1.49399 7.51475ZM0.76574 4.79L0.552169 4.6599L0.54908 4.66527L0.76574 4.79ZM1.27424 3.95525L1.48781 4.08535L1.49097 4.07986L1.27424 3.95525ZM3.99074 3.23075L4.11865 3.01591L4.11525 3.01396L3.99074 3.23075ZM4.40474 3.3485L4.40212 3.5985H4.40474V3.3485ZM5.27024 2.489L5.52027 2.49296L5.52024 2.48757L5.27024 2.489ZM5.84924 1.08575L5.67229 0.909148L5.67176 0.909678L5.84924 1.08575ZM9.63374 1.10375L9.81329 0.929789L9.8126 0.929086L9.63374 1.10375ZM10.1977 2.55425L9.94763 2.5469L9.94776 2.55736L10.1977 2.55425ZM10.311 2.93675L10.5264 2.80989L10.5264 2.80988L10.311 2.93675ZM10.842 3.34025L10.7787 3.58212L10.7817 3.58288L10.842 3.34025ZM11.4982 3.248L11.3742 3.03088L11.3708 3.03291L11.4982 3.248ZM14.2282 3.98075L14.0116 4.10546L14.0117 4.10576L14.2282 3.98075ZM14.6955 4.79L14.9144 4.66921L14.912 4.66499L14.6955 4.79ZM14.727 4.8545L14.496 4.95009L14.5005 4.961L14.506 4.97143L14.727 4.8545ZM13.9695 7.51325L14.0942 7.72994L14.0957 7.72908L13.9695 7.51325ZM13.6515 7.829L13.8681 7.95382L13.8682 7.95357L13.6515 7.829ZM13.5615 8.49125L13.3198 8.55536L13.3199 8.55567L13.5615 8.49125ZM13.9665 9.0185L14.0911 8.80177L14.0907 8.80154L13.9665 9.0185ZM14.8972 10.2305L14.6557 10.2949L14.6557 10.295L14.8972 10.2305ZM14.694 11.7463L14.9083 11.8749L14.9101 11.8719L14.694 11.7463ZM14.196 12.5758L13.9816 12.4471L13.9799 12.45L14.196 12.5758ZM11.4757 13.295L11.6008 13.0785L11.6002 13.0782L11.4757 13.295ZM11.0572 13.1788L11.0637 12.9288H11.0572V13.1788ZM10.4512 13.4323L10.2749 13.2551L10.2745 13.2555L10.4512 13.4323ZM10.1985 14.048L10.4485 14.0492L10.4485 14.0464L10.1985 14.048ZM4.40174 12.33C4.55234 12.33 4.70231 12.3491 4.84856 12.3882L4.97792 11.9053C4.78817 11.8544 4.59464 11.83 4.40174 11.83V12.33ZM4.84825 12.3882C5.29117 12.5074 5.67671 12.8043 5.9046 13.2018L6.33837 12.9532C6.04427 12.4402 5.54931 12.0591 4.97823 11.9053L4.84825 12.3882ZM5.90647 13.205C6.05333 13.4526 6.13514 13.7431 6.13775 14.0397L6.63773 14.0353C6.63434 13.6509 6.52865 13.2739 6.33651 12.95L5.90647 13.205ZM6.13774 14.0375C6.13774 14.6622 6.64033 15.1658 7.26074 15.1658V14.6658C6.91815 14.6658 6.63774 14.3878 6.63774 14.0375H6.13774ZM7.26074 15.1658H8.20049V14.6658H7.26074V15.1658ZM8.20049 15.1658C8.81692 15.1658 9.32059 14.6665 9.32349 14.0492L8.82349 14.0468C8.82189 14.388 8.54256 14.6658 8.20049 14.6658V15.1658ZM9.32349 14.0466C9.32087 13.5844 9.50116 13.1451 9.83302 12.8133L9.47946 12.4597C9.05382 12.8854 8.82011 13.4526 8.82349 14.0494L9.32349 14.0466ZM9.83302 12.8133C10.162 12.4843 10.619 12.2908 11.0666 12.3036L11.0809 11.8039C10.4845 11.7867 9.89744 12.0417 9.47946 12.4597L9.83302 12.8133ZM11.0677 12.3037C11.3685 12.3109 11.6574 12.392 11.9117 12.5366L12.1588 12.1019C11.8326 11.9165 11.463 11.8131 11.0798 11.8038L11.0677 12.3037ZM11.911 12.5362C12.4474 12.8434 13.1325 12.6611 13.4435 12.1298L13.012 11.8772C12.84 12.1709 12.4586 12.2736 12.1595 12.1023L11.911 12.5362ZM13.4421 12.1321L13.9401 11.3018L13.5113 11.0447L13.0133 11.8749L13.4421 12.1321ZM13.942 11.2987C14.0868 11.0492 14.1274 10.7407 14.0512 10.4561L13.5682 10.5854C13.6105 10.7433 13.5867 10.9148 13.5095 11.0478L13.942 11.2987ZM14.0514 10.4568C13.9759 10.1713 13.7868 9.92392 13.5304 9.77724L13.2821 10.2113C13.4217 10.2911 13.5266 10.4277 13.568 10.5847L14.0514 10.4568ZM13.531 9.77762C13.125 9.54371 12.8364 9.16793 12.7163 8.71649L12.2331 8.84501C12.3876 9.42558 12.7605 9.91079 13.2815 10.2109L13.531 9.77762ZM12.7162 8.716C12.5978 8.27445 12.6626 7.7902 12.8941 7.39218L12.4619 7.14082C12.1638 7.6533 12.0802 8.27455 12.2333 8.8455L12.7162 8.716ZM12.8947 7.39112C13.0451 7.12961 13.2659 6.9086 13.5307 6.75655L13.2817 6.32295C12.9405 6.5189 12.6559 6.80339 12.4613 7.14188L12.8947 7.39112ZM13.5325 6.75555C14.0581 6.44813 14.2398 5.76451 13.9361 5.23234L13.5019 5.48016C13.6707 5.77599 13.5674 6.15587 13.28 6.32395L13.5325 6.75555ZM13.9342 5.22907C13.9289 5.22009 13.9256 5.21332 13.9235 5.20835L13.462 5.40065C13.4749 5.43168 13.4896 5.45941 13.5038 5.48343L13.9342 5.22907ZM13.9093 5.17959L13.4698 4.41759L13.0367 4.66741L13.4762 5.42941L13.9093 5.17959ZM13.47 4.41792C13.1616 3.88146 12.4766 3.69813 11.9401 4.00347L12.1874 4.43803C12.4864 4.26787 12.8663 4.37104 13.0365 4.66708L13.47 4.41792ZM11.9365 4.00556C11.5425 4.23854 11.0742 4.30548 10.6228 4.18673L10.4956 4.67027C11.0762 4.82302 11.682 4.73696 12.191 4.43594L11.9365 4.00556ZM10.6219 4.18649C10.171 4.06966 9.79418 3.78506 9.55856 3.38206L9.12692 3.63444C9.4298 4.15244 9.91693 4.52034 10.4965 4.67051L10.6219 4.18649ZM9.55721 3.37979C9.40791 3.13052 9.32609 2.83895 9.32348 2.54155L8.8235 2.54595C8.82688 2.93105 8.93257 3.30998 9.12827 3.63671L9.55721 3.37979ZM9.3234 2.55033C9.33184 2.22968 9.21863 1.93345 9.00629 1.71429L8.64719 2.06221C8.76184 2.18055 8.82864 2.34482 8.82358 2.53717L9.3234 2.55033ZM9.0063 1.7143C8.79555 1.49676 8.50161 1.375 8.20049 1.375V1.875C8.36887 1.875 8.53242 1.94374 8.64718 2.0622L9.0063 1.7143ZM8.20049 1.375H7.26074V1.875H8.20049V1.375ZM7.26074 1.375C6.96155 1.375 6.6808 1.49235 6.47012 1.70207L6.82286 2.05643C6.94068 1.93915 7.09493 1.875 7.26074 1.875V1.375ZM6.46931 1.70288C6.25868 1.91448 6.14332 2.19684 6.14525 2.49586L6.64523 2.49264C6.64416 2.32666 6.7073 2.17252 6.82367 2.05562L6.46931 1.70288ZM6.14527 2.49066C6.13147 3.4513 5.34577 4.2235 4.39799 4.2235V4.7235C5.62071 4.7235 6.62751 3.7302 6.64521 2.49784L6.14527 2.49066ZM4.40068 4.22351C4.09597 4.22023 3.80421 4.13822 3.55204 3.98743L3.29544 4.41657C3.62527 4.61378 4.00401 4.71927 4.3953 4.72349L4.40068 4.22351ZM3.54734 3.98469C3.01835 3.6838 2.33248 3.86945 2.02499 4.40442L2.45849 4.65358C2.6295 4.35605 3.01163 4.2552 3.30013 4.41931L3.54734 3.98469ZM2.02815 4.39908L1.5204 5.23383L1.94758 5.49367L2.45533 4.65892L2.02815 4.39908ZM1.51738 5.23894C1.21484 5.76399 1.40156 6.44872 1.93231 6.75736L2.18367 6.32513C1.88642 6.15228 1.78814 5.77051 1.9506 5.48856L1.51738 5.23894ZM1.93276 6.75762C2.46991 7.0685 2.80549 7.64911 2.80549 8.27075H3.30549C3.30549 7.47039 2.87457 6.725 2.18322 6.32488L1.93276 6.75762ZM2.80549 8.27075C2.80549 8.89217 2.4701 9.47212 1.93129 9.78386L2.18169 10.2166C2.87438 9.81588 3.30549 9.07133 3.30549 8.27075H2.80549ZM1.93118 9.78392C1.40036 10.0914 1.21654 10.7743 1.52431 11.3066L1.95717 11.0564C1.78794 10.7637 1.88912 10.3861 2.1818 10.2166L1.93118 9.78392ZM1.52448 11.3069L1.99773 12.1229L2.43025 11.8721L1.957 11.0561L1.52448 11.3069ZM1.99541 12.1188C2.14365 12.3859 2.38814 12.5825 2.67578 12.6634L2.8112 12.1821C2.65633 12.1385 2.51833 12.0306 2.43257 11.8762L1.99541 12.1188ZM2.67633 12.6636C2.95871 12.7423 3.26961 12.7092 3.5309 12.564L3.28808 12.127C3.14437 12.2068 2.96927 12.2262 2.81065 12.1819L2.67633 12.6636ZM3.53603 12.5611C3.79385 12.4098 4.09639 12.33 4.40174 12.33V11.83C4.01109 11.83 3.62063 11.9317 3.28295 12.1299L3.53603 12.5611ZM8.20049 15.7908H7.26074V16.2908H8.20049V15.7908ZM7.26074 15.7908C6.29694 15.7908 5.51274 15.0071 5.51274 14.0435H5.01274C5.01274 15.2834 6.02104 16.2908 7.26074 16.2908V15.7908ZM5.51272 14.0407C5.51073 13.8606 5.45946 13.6765 5.36433 13.5167L4.93465 13.7723C4.98502 13.857 5.01175 13.9549 5.01276 14.0463L5.51272 14.0407ZM5.3664 13.5202C5.21638 13.2584 4.97177 13.068 4.6858 12.9919L4.55718 13.4751C4.71071 13.516 4.8471 13.6196 4.93258 13.7688L5.3664 13.5202ZM4.68622 12.992C4.40317 12.9162 4.09554 12.9579 3.84204 13.105L4.09294 13.5375C4.23244 13.4566 4.40331 13.4338 4.55676 13.475L4.68622 12.992ZM3.84578 13.1029C3.43221 13.3334 2.94601 13.3889 2.50289 13.2643L2.36759 13.7457C2.93847 13.9061 3.56077 13.8341 4.0892 13.5396L3.84578 13.1029ZM2.50331 13.2644C2.06164 13.1395 1.67822 12.8347 1.45373 12.431L1.01675 12.674C1.30526 13.1928 1.79634 13.584 2.36717 13.7456L2.50331 13.2644ZM1.45147 12.427L0.982718 11.6193L0.550262 11.8702L1.01901 12.678L1.45147 12.427ZM0.983076 11.6199C0.50365 10.7883 0.789175 9.72231 1.61913 9.24243L1.36885 8.80957C0.299804 9.4277 -0.0671705 10.7992 0.549904 11.8696L0.983076 11.6199ZM1.61887 9.24258C1.9655 9.04271 2.18049 8.67066 2.18049 8.27075H1.68049C1.68049 8.49184 1.56098 8.69879 1.36911 8.80942L1.61887 9.24258ZM2.18049 8.27075C2.18049 7.87108 1.9657 7.49816 1.61887 7.29817L1.36911 7.73133C1.56078 7.84184 1.68049 8.04943 1.68049 8.27075H2.18049ZM1.61956 7.29858C0.788443 6.81578 0.50356 5.74647 0.9824 4.91473L0.54908 4.66527C-0.0670807 5.73553 0.299037 7.10972 1.36841 7.73092L1.61956 7.29858ZM0.979245 4.92006L1.48774 4.08531L1.06073 3.82519L0.552235 4.65994L0.979245 4.92006ZM1.49097 4.07986C1.96248 3.25979 3.03189 2.96834 3.86623 3.44754L4.11525 3.01396C3.04309 2.39816 1.6675 2.76971 1.05751 3.83064L1.49097 4.07986ZM3.86285 3.44556C4.03007 3.54512 4.21422 3.59652 4.40212 3.59849L4.40736 3.09851C4.30876 3.09748 4.21091 3.07088 4.11863 3.01594L3.86285 3.44556ZM4.40474 3.5985C5.01011 3.5985 5.51057 3.10187 5.52021 2.49296L5.02027 2.48504C5.01491 2.82413 4.73387 3.0985 4.40474 3.0985V3.5985ZM5.52024 2.48757C5.51762 2.0324 5.69697 1.5942 6.02672 1.26182L5.67176 0.909678C5.25001 1.3348 5.01686 1.9001 5.02024 2.49043L5.52024 2.48757ZM6.02619 1.26235C6.35657 0.931319 6.79391 0.75 7.26074 0.75V0.25C6.66107 0.25 6.09641 0.484181 5.67229 0.909149L6.02619 1.26235ZM7.26074 0.75H8.20049V0.25H7.26074V0.75ZM8.20049 0.75C8.67004 0.75 9.12759 0.943258 9.45488 1.27841L9.8126 0.929086C9.39139 0.497742 8.80494 0.25 8.20049 0.25V0.75ZM9.45419 1.27771C9.78099 1.61501 9.96161 2.07848 9.94785 2.54691L10.4476 2.56159C10.4654 1.95752 10.2335 1.36349 9.81329 0.92979L9.45419 1.27771ZM9.94776 2.55736C9.94985 2.72597 10.0038 2.90772 10.0956 3.06362L10.5264 2.80988C10.4742 2.72128 10.4486 2.62403 10.4477 2.55114L9.94776 2.55736ZM10.0956 3.06361C10.248 3.3224 10.4906 3.50669 10.7787 3.5821L10.9053 3.0984C10.7464 3.05681 10.6125 2.9561 10.5264 2.80989L10.0956 3.06361ZM10.7817 3.58288C11.0657 3.6534 11.3676 3.616 11.6257 3.46309L11.3708 3.03291C11.2314 3.1155 11.0653 3.1381 10.9022 3.09762L10.7817 3.58288ZM11.6222 3.46509C12.4636 2.98458 13.5326 3.27334 14.0116 4.10546L14.4449 3.85604C13.8274 2.78316 12.4529 2.41492 11.3743 3.03091L11.6222 3.46509ZM14.0117 4.10576L14.479 4.91501L14.912 4.66499L14.4447 3.85574L14.0117 4.10576ZM14.4766 4.91077C14.4855 4.92698 14.4915 4.93933 14.496 4.95009L14.958 4.75891C14.9444 4.72617 14.9294 4.69652 14.9144 4.66923L14.4766 4.91077ZM14.506 4.97143C14.9401 5.79177 14.6497 6.82606 13.8433 7.29742L14.0957 7.72908C15.1343 7.12194 15.5069 5.79373 14.948 4.73757L14.506 4.97143ZM13.8448 7.29656C13.6734 7.39519 13.5324 7.5345 13.4347 7.70443L13.8682 7.95357C13.9206 7.8625 13.9971 7.78581 14.0942 7.72994L13.8448 7.29656ZM13.4349 7.70419C13.2862 7.9622 13.2441 8.27002 13.3198 8.55536L13.8031 8.42714C13.7618 8.27148 13.7843 8.0993 13.8681 7.95382L13.4349 7.70419ZM13.3199 8.55567C13.397 8.84483 13.5823 9.08665 13.8423 9.23546L14.0907 8.80154C13.9471 8.71935 13.8459 8.58768 13.803 8.42683L13.3199 8.55567ZM13.8419 9.23523C14.2396 9.4639 14.5371 9.85016 14.6557 10.2949L15.1388 10.1661C14.9859 9.59234 14.6039 9.0966 14.0911 8.80177L13.8419 9.23523ZM14.6557 10.295C14.7743 10.7391 14.7093 11.2227 14.4779 11.6206L14.9101 11.8719C15.2082 11.3593 15.2917 10.7389 15.1388 10.166L14.6557 10.295ZM14.4797 11.6176L13.9817 12.4471L14.4103 12.7044L14.9083 11.8749L14.4797 11.6176ZM13.9799 12.45C13.5011 13.2727 12.432 13.5588 11.6008 13.0785L11.3507 13.5115C12.4199 14.1292 13.7944 13.7628 14.4121 12.7015L13.9799 12.45ZM11.6002 13.0782C11.4363 12.9841 11.2493 12.9336 11.0637 12.9288L11.0508 13.4287C11.1562 13.4314 11.2617 13.4604 11.3513 13.5118L11.6002 13.0782ZM11.0572 12.9288H11.0527V13.4288H11.0572V12.9288ZM11.0527 12.9288C10.7679 12.9288 10.4823 13.0486 10.2749 13.2551L10.6276 13.6094C10.7442 13.4934 10.9041 13.4288 11.0527 13.4288V12.9288ZM10.2745 13.2555C10.063 13.467 9.94656 13.7502 9.94849 14.0496L10.4485 14.0464C10.4474 13.8808 10.511 13.726 10.628 13.609L10.2745 13.2555ZM9.94849 14.0468C9.9439 15.0112 9.15912 15.7908 8.20049 15.7908V16.2908C9.43486 16.2908 10.4426 15.2883 10.4485 14.0492L9.94849 14.0468Z" fill="currentColor"/>
</g>
<path fill-rule="evenodd" clip-rule="evenodd" d="M7.73384 6.85547C6.95384 6.85547 6.31934 7.49072 6.31934 8.27072C6.31934 9.05072 6.95384 9.68447 7.73384 9.68447C8.51384 9.68447 9.14834 9.05072 9.14834 8.27072C9.14834 7.49072 8.51384 6.85547 7.73384 6.85547ZM7.73384 10.8095C6.33359 10.8095 5.19434 9.67097 5.19434 8.27072C5.19434 6.87047 6.33359 5.73047 7.73384 5.73047C9.13409 5.73047 10.2733 6.87047 10.2733 8.27072C10.2733 9.67097 9.13409 10.8095 7.73384 10.8095Z" fill="currentColor"/>
<path d="M7.73384 6.60547C6.81559 6.60547 6.06934 7.35282 6.06934 8.27072H6.56934C6.56934 7.62862 7.09208 7.10547 7.73384 7.10547V6.60547ZM6.06934 8.27072C6.06934 9.18896 6.81594 9.93447 7.73384 9.93447V9.43447C7.09173 9.43447 6.56934 8.91248 6.56934 8.27072H6.06934ZM7.73384 9.93447C8.65174 9.93447 9.39834 9.18896 9.39834 8.27072H8.89834C8.89834 8.91248 8.37594 9.43447 7.73384 9.43447V9.93447ZM9.39834 8.27072C9.39834 7.35282 8.65208 6.60547 7.73384 6.60547V7.10547C8.37559 7.10547 8.89834 7.62862 8.89834 8.27072H9.39834ZM7.73384 10.5595C6.47156 10.5595 5.44434 9.5328 5.44434 8.27072H4.94434C4.94434 9.80914 6.19561 11.0595 7.73384 11.0595V10.5595ZM5.44434 8.27072C5.44434 7.00844 6.47175 5.98047 7.73384 5.98047V5.48047C6.19542 5.48047 4.94434 6.73249 4.94434 8.27072H5.44434ZM7.73384 5.98047C8.99592 5.98047 10.0233 7.00844 10.0233 8.27072H10.5233C10.5233 6.73249 9.27225 5.48047 7.73384 5.48047V5.98047ZM10.0233 8.27072C10.0233 9.5328 8.99611 10.5595 7.73384 10.5595V11.0595C9.27206 11.0595 10.5233 9.80914 10.5233 8.27072H10.0233Z" fill="currentColor"/>
</svg>
