<svg width="16" height="16" viewBox="0 0 16 16" fill="none">
<path d="M7.61923 1.0918H4.81498C2.50873 1.0918 1.06273 2.72455 1.06273 5.03605V11.2715C1.06273 13.583 2.50198 15.2158 4.81498 15.2158H11.433C13.7467 15.2158 15.186 13.583 15.186 11.2715V8.25055" stroke="#51575E" stroke-width="1.5" stroke-linecap="round" stroke-linejoin="round"/>
<path fill-rule="evenodd" clip-rule="evenodd" d="M5.62085 7.19086L11.2256 1.58611C11.9238 0.888613 13.0556 0.888613 13.7538 1.58611L14.6666 2.49886C15.3648 3.19711 15.3648 4.32961 14.6666 5.02711L9.03485 10.6589C8.7296 10.9641 8.3156 11.1359 7.8836 11.1359H5.0741L5.1446 8.30086C5.1551 7.88386 5.32535 7.48636 5.62085 7.19086Z" stroke="#51575E" stroke-width="1.5" stroke-linecap="round" stroke-linejoin="round"/>
<path d="M10.3739 2.45215L13.7984 5.87665" stroke="#51575E" stroke-width="1.5" stroke-linecap="round" stroke-linejoin="round"/>
</svg>
