<svg viewBox="0 0 18 18" fill="none">
<path d="M6 3H4.5C3.67157 3 3 3.67157 3 4.5V5.25C3 6.07843 3.67157 6.75 4.5 6.75H6C6.82843 6.75 7.5 6.07843 7.5 5.25V4.5C7.5 3.67157 6.82843 3 6 3Z" stroke="#51575E" stroke-width="1.5" stroke-linecap="round" stroke-linejoin="round"/>
<path d="M6 9.75H4.5C3.67157 9.75 3 10.4216 3 11.25V13.5C3 14.3284 3.67157 15 4.5 15H6C6.82843 15 7.5 14.3284 7.5 13.5V11.25C7.5 10.4216 6.82843 9.75 6 9.75Z" stroke="#51575E" stroke-width="1.5" stroke-linecap="round" stroke-linejoin="round"/>
<path d="M13.5 3H12C11.1716 3 10.5 3.67157 10.5 4.5V13.5C10.5 14.3284 11.1716 15 12 15H13.5C14.3284 15 15 14.3284 15 13.5V4.5C15 3.67157 14.3284 3 13.5 3Z" stroke="#51575E" stroke-width="1.5" stroke-linecap="round" stroke-linejoin="round"/>
</svg>
