<svg  viewBox="0 0 36 36" fill="none" xmlns="http://www.w3.org/2000/svg">
<path d="M7 30L7.71171 19.9916C7.74893 19.4681 8.18443 19.0625 8.70919 19.0625H10.8889M10.8889 19.0625V15.375C10.8889 14.8227 11.3366 14.375 11.8889 14.375H12.4444M10.8889 19.0625H24.1111M22.5556 14.375V6.25831C22.5556 5.61483 21.9566 5.13884 21.3297 5.28414L13.2186 7.16429C12.7654 7.26936 12.4444 7.67317 12.4444 8.13846V14.375M22.5556 14.375H12.4444M22.5556 14.375H23.1111C23.6634 14.375 24.1111 14.8227 24.1111 15.375V19.0625M24.1111 19.0625H26.2908C26.8156 19.0625 27.2511 19.4681 27.2883 19.9916L28 30" stroke="#51575E" stroke-width="2.75" stroke-linecap="round"/>
</svg>
