<svg viewBox="0 0 14 14" fill="none" xmlns="http://www.w3.org/2000/svg">
<path d="M7.23737 1.00533C7.32887 1.00533 7.41968 1.00533 7.5098 1.00533C6.61926 1.80114 6.04684 2.8719 5.89205 4.03148C5.73725 5.19106 6.00987 6.36615 6.66251 7.35249C7.31515 8.33882 8.30654 9.07403 9.46436 9.43031C10.6222 9.7866 11.8732 9.74143 13 9.30267C12.5666 10.3057 11.8581 11.1767 10.9503 11.8228C10.0425 12.469 8.9693 12.866 7.84524 12.9716C6.72118 13.0772 5.5884 12.8873 4.56774 12.4223C3.54708 11.9572 2.67683 11.2345 2.04981 10.3311C1.42278 9.42766 1.06251 8.37752 1.00743 7.29265C0.95234 6.20777 1.2045 5.12886 1.73702 4.17101C2.26953 3.21315 3.06242 2.41228 4.03111 1.85382C4.9998 1.29536 6.10796 1.00026 7.23737 1V1.00533Z" stroke="black" stroke-width="1.5" stroke-linecap="round" stroke-linejoin="round"/>
</svg>
